<?xml version="1.0" encoding="utf-8"?>
<!-- Generator: Adobe Illustrator 21.1.0, SVG Export Plug-In . SVG Version: 6.00 Build 0)  -->
<svg version="1.1" id="Layer_1" xmlns="http://www.w3.org/2000/svg" xmlns:xlink="http://www.w3.org/1999/xlink" x="0px" y="0px"
	 viewBox="0 0 400 68.1" style="enable-background:new 0 0 400 68.1;" xml:space="preserve">
<style type="text/css">
	.st0{fill:#EC008C;}
	.st1{fill:#252525;}
</style>
<title>Head_Logo</title>
<path class="st0" d="M0,6.3v0.5c7.5,0,7.5,3.6,7.5,12v23.7c0,8.1,0,12-7.5,12V55h28c13.9,0,22.3-5.2,22.3-13.9
	c0-11.1-15.6-12.9-23-12.9v-0.1c7-0.2,19.8-1.3,19.8-10.4c0-11.2-15.2-11.3-27.4-11.3L0,6.3L0,6.3z M21.8,27.9V6.8h1.8
	c7.5,0,9.5,3.8,9.5,10.4c0,7.4-2.2,10.7-9.4,10.7L21.8,27.9L21.8,27.9z M21.8,28.4h2.3c9.3,0,10.9,4.8,10.9,12.7
	c0,9.1-2.6,13.4-8.6,13.4c-4.5,0-4.7-1.5-4.7-8.1L21.8,28.4L21.8,28.4L21.8,28.4z M90,32.7C92.2,23.9,85.9,18,74.4,18
	s-21,7.5-21,18.6S60.6,55.5,72,55.5c10,0,16.2-6.5,19.5-14.8l-0.4-0.2c-2.4,4.2-6.9,6.8-11.7,6.7c-9,0-12.9-7.2-12.9-14.5H90
	L90,32.7z M73.3,18.5c5.6,0,5.5,9.2,4.4,13.5H66.6C66.7,27.2,68.4,18.5,73.3,18.5L73.3,18.5L73.3,18.5z M118.2,55v-0.5
	c-5.4,0-6-1.4-6-8.8V18l-19.9,5.4l0.1,0.5c5.9-1.4,6.9,0.5,6.9,5.1v16.7c0,7.5-0.6,8.8-6,8.8V55H118.2L118.2,55z M105.7,0
	c-4.2,0-7.5,3.4-7.5,7.5c0,4.2,3.4,7.5,7.5,7.5c4.2,0,7.5-3.4,7.5-7.5c0,0,0,0,0-0.1C113.2,3.3,109.9,0,105.7,0
	C105.8,0,105.7,0,105.7,0L105.7,0z M167.5,55v-0.5c-5.4,0-6-1.4-6-8.8V28.2c0-7.1-2.4-10.2-8.1-10.2c-4.3,0-8.5,1.9-15.4,7.5
	l0.2-7.5l-20,5.4l0.1,0.5c5.9-1.4,6.9,0.5,6.9,5.1v16.7c0,7.5-0.6,8.8-6,8.8V55H142v-0.5c-3.8,0-3.8-3.1-3.8-7.5V26
	c1.7-1.6,3.8-2.5,6.1-2.7c4,0,4.4,3.8,4.4,6.6V47c0,5.6-0.1,7.5-3.8,7.5V55H167.5L167.5,55z M185.2,68.1c13.4,0,23.3-5.8,23.3-15.3
	c0-9.2-9-10.7-16.1-10.7c-2.3,0-5.2,0.1-7.2,0.1c-7.5,0-11.6-1.5-6.1-5.6c2.8,0.9,5.7,1.4,8.6,1.5c10,0,17.2-4.6,17.2-11
	c0-5.2-7.5-9.7-15.1-9.7c-0.5-3.2,2-4.3,4.3-4.3s4.8,1.1,4.5,3.3c3.2-0.1,5.8-2.7,5.8-5.9c0-3.4-2.6-5.7-6.6-5.7
	c-6.8,0-10.7,6.5-8.3,12.6c-6.6-0.2-17.7,3.2-17.7,10.9c0,4.1,3.5,6.9,7,8c-5.8,3.1-9.5,6.4-9.5,10.2c0,7.1,8.2,8.1,15.2,8.1
	c3.2,0,6.1-0.1,7.9-0.1c5.6,0,8.6,1.9,8.6,5.1c0,4.7-6,7.8-14.8,7.8c-6.5,0-8.4-1.7-8.4-4c-0.1-1.6,0.9-3.1,2.4-3.6
	c-0.1-3.1-2.8-4.7-5.4-4.7s-5.2,1.6-5.2,5.1C169.3,66.6,177.6,68.2,185.2,68.1L185.2,68.1L185.2,68.1z M187.9,18.1
	c3.4,0,5.2,3.4,5.2,10c0,3.8-0.1,9.6-4.7,9.6c-3.5,0-5.2-3.2-5.2-10.1S184.5,18.1,187.9,18.1L187.9,18.1L187.9,18.1z M223,6.3v0.5
	c7.5,0,7.5,3.6,7.5,12v23.7c0,8.1,0,12-7.5,12V55h28c13.8,0,22.3-5.2,22.3-13.9c0-11.1-15.6-12.9-23-12.9v-0.1
	c7-0.2,19.8-1.3,19.8-10.4c0-11.2-15.2-11.3-27.3-11.3L223,6.3L223,6.3z M244.8,27.9V6.8h1.8c7.5,0,9.5,3.8,9.5,10.4
	c0,7.4-2.2,10.7-9.4,10.7L244.8,27.9L244.8,27.9z M244.8,28.4h2.3c9.3,0,10.9,4.8,10.9,12.7c0,9.1-2.6,13.4-8.6,13.4
	c-4.5,0-4.7-1.5-4.7-8.1L244.8,28.4L244.8,28.4L244.8,28.4z M296.7,18c-11.3,0-20.2,7.9-20.2,18.8s8.8,18.7,20.2,18.7
	s20.3-8,20.3-18.7S308.1,18,296.7,18L296.7,18L296.7,18z M296.7,55c-6,0-6-10-6-18.2c0-7.9,0-18.2,6-18.2s6.1,10.3,6.1,18.2
	C302.8,45,302.8,55,296.7,55L296.7,55z M321.9,55.4l5.2-1.3c3.7,0.9,7.4,1.4,11.2,1.5c9.7,0,17.1-5.1,17.1-12.6
	c0-13.7-24.3-11.6-24.3-19.6c0-2.6,2.7-4.8,6.8-4.8c5.1,0,12.8,3.3,13.6,11.8h0.5l-0.7-12.3l-4.6,1.3c-2.8-0.9-5.7-1.3-8.6-1.3
	c-7.2,0-17,3.1-17,11.6c0,13.7,24.8,12.9,24.8,20.5c0,2.7-3.2,4.9-7.7,4.9c-4.9,0-15-2.6-16.6-14.4h-0.5L321.9,55.4L321.9,55.4
	L321.9,55.4z M360.3,55.4l5.2-1.3c3.7,0.9,7.4,1.4,11.2,1.5c9.7,0,17.1-5.1,17.1-12.6c0-13.7-24.3-11.6-24.3-19.6
	c0-2.6,2.7-4.8,6.8-4.8c5.1,0,12.8,3.3,13.6,11.8h0.5l-0.7-12.3l-4.6,1.3c-2.8-0.9-5.7-1.3-8.6-1.3c-7.2,0-17,3.1-17,11.6
	c0,13.7,24.8,12.9,24.8,20.5c0,2.7-3.2,4.9-7.7,4.9c-4.9,0-15-2.6-16.6-14.4h-0.5L360.3,55.4L360.3,55.4L360.3,55.4z"/>
<path class="st1" d="M393.8,21.1c0,1.7,1.4,3.1,3.1,3.1s3.1-1.4,3.1-3.1s-1.4-3.1-3.1-3.1C395.2,18,393.8,19.3,393.8,21.1
	L393.8,21.1L393.8,21.1z M394.3,21.1c0-1.4,1.2-2.6,2.6-2.6s2.6,1.2,2.6,2.6s-1.2,2.6-2.6,2.6S394.3,22.5,394.3,21.1L394.3,21.1
	L394.3,21.1z M395.8,22.5c0,0.1,0.1,0.2,0.2,0.2h0.2c0.1,0,0.2-0.1,0.2-0.2v-1h0.6l0.5,1.1c0,0.1,0.1,0.1,0.2,0.1h0.4
	c0.1,0,0.2-0.1,0.2-0.2v-0.1l-0.5-1c0.4-0.1,0.7-0.5,0.7-0.9c0-0.6-0.4-1-1-1c0,0,0,0-0.1,0H396c-0.1,0-0.2,0.1-0.2,0.2V22.5
	L395.8,22.5L395.8,22.5z M396.4,20.9v-1h0.8c0.3,0,0.5,0.2,0.5,0.4c0,0,0,0,0,0.1c0,0.3-0.2,0.5-0.5,0.5l0,0H396.4L396.4,20.9z"/>
</svg>
