<svg id="Layer_1" data-name="Layer 1" xmlns="http://www.w3.org/2000/svg" viewBox="0 0 400.03 68.16"><defs><style>.cls-1{fill:#00aeef;}.cls-2{fill:#252525;}</style></defs><title>Head_Logo_blue</title><path class="cls-1" d="M0,6.27v.49c7.52,0,7.52,3.62,7.52,12V42.42c0,8.14,0,12-7.52,12v.49H28c13.85,0,22.34-5.22,22.34-13.92,0-11.07-15.59-12.88-23-12.94v-.14c7-.21,19.77-1.25,19.77-10.44,0-11.21-15.24-11.28-27.35-11.28H0ZM21.82,27.85V6.75h1.81c7.52,0,9.54,3.76,9.54,10.37,0,7.38-2.16,10.72-9.4,10.72h-2Zm0,.56h2.3c9.26,0,10.93,4.8,10.93,12.67,0,9.12-2.57,13.43-8.56,13.43-4.45,0-4.66-1.53-4.66-8.14v-18h0ZM90,32.73C92.25,23.89,85.91,18,74.43,18s-21,7.45-21,18.58,7.24,18.93,18.58,18.93c10,0,16.22-6.47,19.49-14.75l-.42-.21A13,13,0,0,1,79.44,47.2c-9,0-12.88-7.17-12.88-14.48H90Zm-16.7-14.2c5.57,0,5.5,9.19,4.38,13.5H66.61c.07-4.87,1.81-13.5,6.75-13.5h0ZM118.21,55v-.49c-5.43,0-6-1.39-6-8.84V18l-19.9,5.36.14.49c5.92-1.39,6.89.49,6.89,5.15v16.7c0,7.45-.63,8.84-6,8.84V55h25ZM105.68,0a7.52,7.52,0,1,0,7.52,7.52V7.45A7.43,7.43,0,0,0,105.79,0Zm61.87,55v-.49c-5.43,0-6-1.39-6-8.84V28.19c0-7.1-2.44-10.23-8.07-10.23-4.25,0-8.49,1.88-15.38,7.52l.21-7.52-20,5.36.14.49c5.92-1.39,6.89.49,6.89,5.15v16.7c0,7.45-.63,8.84-6,8.84V55H142V54.5c-3.76,0-3.83-3.06-3.83-7.45v-21a10.2,10.2,0,0,1,6.13-2.71c4,0,4.38,3.76,4.38,6.61v17.1c0,5.57-.07,7.45-3.76,7.45V55h22.66Zm17.61,13.15c13.43,0,23.32-5.78,23.32-15.31,0-9.19-9-10.72-16.08-10.72-2.3,0-5.22.14-7.24.14-7.45,0-11.62-1.53-6.12-5.57a30.27,30.27,0,0,0,8.56,1.46c10,0,17.19-4.59,17.19-11,0-5.22-7.52-9.67-15.1-9.67-.49-3.2,2-4.25,4.25-4.25s4.8,1.11,4.45,3.27a5.93,5.93,0,0,0,5.78-5.92c0-3.41-2.64-5.71-6.61-5.71-6.75,0-10.65,6.47-8.35,12.6-6.61-.21-17.68,3.2-17.68,10.93,0,4.11,3.48,6.89,7,8-5.78,3.13-9.54,6.4-9.54,10.16,0,7.1,8.21,8.14,15.17,8.14,3.2,0,6.13-.14,7.93-.14,5.57,0,8.56,1.88,8.56,5.15,0,4.66-6,7.79-14.75,7.79-6.47,0-8.42-1.67-8.42-4a3.56,3.56,0,0,1,2.37-3.62c-.14-3.13-2.85-4.66-5.36-4.66a5,5,0,0,0-5.22,5.08c0,6.26,8.35,7.86,15.94,7.86h-.05Zm2.75-50.08c3.41,0,5.15,3.41,5.15,10,0,3.83-.07,9.6-4.66,9.6-3.55,0-5.15-3.2-5.15-10.09s1.25-9.46,4.66-9.46h0ZM223,6.27v.49c7.52,0,7.52,3.62,7.52,12V42.42c0,8.14,0,12-7.52,12v.49h28c13.85,0,22.34-5.22,22.34-13.92,0-11.07-15.59-12.88-23-12.94v-.14c7-.21,19.77-1.25,19.77-10.44,0-11.21-15.24-11.28-27.35-11.28H223Zm21.85,21.58V6.75h1.81c7.52,0,9.54,3.76,9.54,10.37,0,7.38-2.16,10.72-9.4,10.72h-1.95Zm0,.56h2.3c9.26,0,10.93,4.8,10.93,12.67,0,9.12-2.57,13.43-8.56,13.43-4.45,0-4.66-1.53-4.66-8.14v-18h0ZM296.67,18c-11.34,0-20.18,7.93-20.18,18.79s8.84,18.72,20.18,18.72S317,47.54,317,36.75,308.13,18,296.72,18h-.05Zm0,37c-6,0-6-10-6-18.16,0-7.93,0-18.23,6-18.23s6.12,10.3,6.12,18.23c0,8.14,0,18.16-6.12,18.16Zm25.19.42L327,54.07a51.63,51.63,0,0,0,11.2,1.46c9.74,0,17.12-5.08,17.12-12.6,0-13.71-24.29-11.62-24.29-19.56,0-2.64,2.71-4.8,6.75-4.8,5.08,0,12.81,3.34,13.64,11.76H352l-.72-12.26-4.59,1.25A29.47,29.47,0,0,0,338.1,18c-7.24,0-17,3.06-17,11.62,0,13.71,24.78,12.87,24.78,20.46,0,2.72-3.2,4.87-7.66,4.87-4.87,0-15-2.64-16.63-14.41h-.49l.77,14.82h0Zm38.42,0,5.15-1.32a51.64,51.64,0,0,0,11.2,1.46c9.74,0,17.12-5.08,17.12-12.6,0-13.71-24.29-11.62-24.29-19.56,0-2.64,2.71-4.8,6.75-4.8,5.08,0,12.81,3.34,13.64,11.76h.49l-.67-12.26-4.59,1.25A29.47,29.47,0,0,0,376.52,18c-7.24,0-17,3.06-17,11.62,0,13.71,24.78,12.87,24.78,20.46,0,2.72-3.2,4.87-7.66,4.87-4.87,0-15-2.64-16.63-14.41h-.49l.77,14.82h0Z" transform="translate(0.03 0)"/><path class="cls-2" d="M393.78,21.07A3.11,3.11,0,1,0,396.89,18a3.11,3.11,0,0,0-3.11,3.12Zm.52,0a2.59,2.59,0,1,1,2.59,2.59,2.59,2.59,0,0,1-2.59-2.59Zm1.51,1.41a.16.16,0,0,0,.16.16h.22a.16.16,0,0,0,.16-.16v-1H397l.49,1.08a.21.21,0,0,0,.16.12H398a.16.16,0,0,0,.15-.23l-.52-1a.92.92,0,0,0,.7-.94,1,1,0,0,0-1-1H396a.16.16,0,0,0-.16.16v2.84h0Zm.54-1.54v-1h.85a.48.48,0,0,1,.52.44.5.5,0,0,1-.49.54h-.88Z" transform="translate(0.03 0)"/></svg>